<mxfile host="app.diagrams.net" modified="2021-09-07T16:06:22.266Z" agent="5.0 (X11; Linux x86_64) AppleWebKit/537.36 (KHTML, like Gecko) Chrome/92.0.4515.159 Safari/537.36" etag="5ewqxsaAFE11vkZWj9JH" version="15.1.1" type="github">
  <diagram id="ZtnwksKEoox5b-75FEVL" name="Page-1">
    <mxGraphModel dx="796" dy="462" grid="1" gridSize="10" guides="1" tooltips="1" connect="1" arrows="1" fold="1" page="1" pageScale="1" pageWidth="850" pageHeight="1100" math="0" shadow="0">
      <root>
        <mxCell id="0" />
        <mxCell id="1" parent="0" />
        <mxCell id="wvebpEO4zuFVfLVzERRR-9" style="edgeStyle=orthogonalEdgeStyle;rounded=0;orthogonalLoop=1;jettySize=auto;html=1;exitX=0.5;exitY=1;exitDx=0;exitDy=0;entryX=0.592;entryY=-0.05;entryDx=0;entryDy=0;entryPerimeter=0;fontFamily=Helvetica;" edge="1" parent="1" source="wvebpEO4zuFVfLVzERRR-1" target="wvebpEO4zuFVfLVzERRR-4">
          <mxGeometry relative="1" as="geometry" />
        </mxCell>
        <mxCell id="wvebpEO4zuFVfLVzERRR-1" value="Header section" style="rounded=0;whiteSpace=wrap;html=1;strokeColor=#7EA6E0;fontFamily=Helvetica;" vertex="1" parent="1">
          <mxGeometry x="290" width="220" height="60" as="geometry" />
        </mxCell>
        <mxCell id="wvebpEO4zuFVfLVzERRR-3" style="edgeStyle=orthogonalEdgeStyle;rounded=0;orthogonalLoop=1;jettySize=auto;html=1;exitX=0.75;exitY=0;exitDx=0;exitDy=0;entryX=0;entryY=1;entryDx=0;entryDy=0;fontFamily=Helvetica;" edge="1" parent="1" source="wvebpEO4zuFVfLVzERRR-2" target="wvebpEO4zuFVfLVzERRR-1">
          <mxGeometry relative="1" as="geometry" />
        </mxCell>
        <mxCell id="wvebpEO4zuFVfLVzERRR-2" value="Logo&amp;nbsp;" style="rounded=0;whiteSpace=wrap;html=1;fontFamily=Helvetica;strokeColor=#7EA6E0;" vertex="1" parent="1">
          <mxGeometry x="200" y="80" width="120" height="60" as="geometry" />
        </mxCell>
        <mxCell id="wvebpEO4zuFVfLVzERRR-4" value="search bar&amp;nbsp;&amp;nbsp;" style="rounded=0;whiteSpace=wrap;html=1;fontFamily=Helvetica;strokeColor=#7EA6E0;" vertex="1" parent="1">
          <mxGeometry x="330" y="80" width="120" height="60" as="geometry" />
        </mxCell>
        <mxCell id="wvebpEO4zuFVfLVzERRR-6" style="edgeStyle=orthogonalEdgeStyle;rounded=0;orthogonalLoop=1;jettySize=auto;html=1;entryX=1;entryY=1;entryDx=0;entryDy=0;fontFamily=Helvetica;" edge="1" parent="1" source="wvebpEO4zuFVfLVzERRR-5" target="wvebpEO4zuFVfLVzERRR-1">
          <mxGeometry relative="1" as="geometry" />
        </mxCell>
        <mxCell id="wvebpEO4zuFVfLVzERRR-5" value="cart icon&amp;nbsp; user profile icon and sing up icon&amp;nbsp;" style="rounded=0;whiteSpace=wrap;html=1;fontFamily=Helvetica;strokeColor=#7EA6E0;" vertex="1" parent="1">
          <mxGeometry x="460" y="80" width="120" height="60" as="geometry" />
        </mxCell>
      </root>
    </mxGraphModel>
  </diagram>
</mxfile>
